<svg xmlns="http://www.w3.org/2000/svg" xmlns:xlink="http://www.w3.org/1999/xlink" zoomAndPan="magnify" preserveAspectRatio="xMidYMid meet" version="1.0" viewBox="29.9 150.71 322.92 58.84"><defs><g/><clipPath id="7d6f53b0df"><path d="M 29.902344 150.714844 L 142.402344 150.714844 L 142.402344 209.214844 L 29.902344 209.214844 Z M 29.902344 150.714844 " clip-rule="nonzero"/></clipPath></defs><g clip-path="url(#7d6f53b0df)"><path fill="#e8228c" d="M 124.9375 174.667969 C 122.445312 174.667969 120.078125 175.195312 117.9375 176.132812 C 115.855469 166.898438 107.609375 160 97.75 160 C 95.746094 160 93.808594 160.289062 91.976562 160.824219 C 88.363281 154.769531 81.75 150.714844 74.191406 150.714844 C 63.785156 150.714844 55.175781 158.390625 53.710938 168.390625 C 52.699219 168.238281 51.660156 168.15625 50.605469 168.15625 C 39.171875 168.15625 29.90625 177.425781 29.90625 188.855469 C 29.90625 200.285156 39.171875 209.554688 50.605469 209.554688 L 124.15625 209.554688 L 124.15625 209.53125 C 124.414062 209.542969 124.675781 209.554688 124.9375 209.554688 C 134.566406 209.554688 142.375 201.746094 142.375 192.109375 C 142.375 182.476562 134.566406 174.667969 124.9375 174.667969 Z M 64.875 192.589844 C 64.875 193.640625 64.023438 194.496094 62.96875 194.496094 C 61.917969 194.496094 61.058594 193.640625 61.058594 192.589844 L 61.058594 178.988281 C 61.058594 177.933594 61.917969 177.078125 62.96875 177.078125 C 63.496094 177.078125 63.96875 177.292969 64.316406 177.636719 C 64.660156 177.980469 64.875 178.460938 64.875 178.988281 Z M 71.835938 197.378906 C 71.835938 198.429688 70.984375 199.285156 69.933594 199.285156 C 68.875 199.285156 68.023438 198.429688 68.023438 197.378906 L 68.023438 174.199219 C 68.023438 173.144531 68.875 172.289062 69.933594 172.289062 C 70.460938 172.289062 70.933594 172.503906 71.277344 172.847656 C 71.621094 173.191406 71.835938 173.671875 71.835938 174.199219 Z M 78.800781 202.414062 C 78.800781 203.46875 77.949219 204.320312 76.894531 204.320312 C 75.84375 204.320312 74.988281 203.46875 74.988281 202.414062 L 74.988281 169.160156 C 74.988281 168.105469 75.84375 167.253906 76.894531 167.253906 C 77.421875 167.253906 77.902344 167.464844 78.246094 167.808594 C 78.589844 168.15625 78.800781 168.632812 78.800781 169.160156 Z M 85.765625 195.421875 C 85.765625 196.472656 84.910156 197.328125 83.859375 197.328125 C 82.804688 197.328125 81.953125 196.472656 81.953125 195.421875 L 81.953125 176.152344 C 81.953125 175.097656 82.804688 174.246094 83.859375 174.246094 C 84.382812 174.246094 84.859375 174.460938 85.207031 174.804688 C 85.550781 175.148438 85.761719 175.625 85.761719 176.152344 L 85.761719 195.421875 Z M 92.730469 192.589844 C 92.730469 193.640625 91.878906 194.496094 90.824219 194.496094 C 89.773438 194.496094 88.917969 193.640625 88.917969 192.589844 L 88.917969 178.988281 C 88.917969 177.933594 89.769531 177.078125 90.824219 177.078125 C 91.351562 177.078125 91.824219 177.292969 92.171875 177.636719 C 92.515625 177.980469 92.730469 178.460938 92.730469 178.988281 Z M 99.691406 196.042969 C 99.691406 197.09375 98.839844 197.949219 97.785156 197.949219 C 96.730469 197.949219 95.878906 197.097656 95.878906 196.042969 L 95.878906 177.371094 C 95.878906 176.320312 96.730469 175.46875 97.785156 175.46875 C 98.316406 175.46875 98.789062 175.679688 99.132812 176.023438 C 99.476562 176.371094 99.691406 176.847656 99.691406 177.371094 Z M 106.65625 189.488281 C 106.65625 190.542969 105.804688 191.394531 104.75 191.394531 C 103.699219 191.394531 102.84375 190.542969 102.84375 189.488281 L 102.84375 182.085938 C 102.84375 181.035156 103.699219 180.179688 104.75 180.179688 C 105.277344 180.179688 105.757812 180.390625 106.101562 180.738281 C 106.445312 181.082031 106.65625 181.558594 106.65625 182.085938 Z M 106.65625 189.488281 " fill-opacity="1" fill-rule="nonzero"/></g><g fill="#ffffff" fill-opacity="1"><g transform="translate(153.285625, 197.5147)"><g><path d="M 12.5 0.625 C 10.53125 0.625 8.835938 0.367188 7.421875 -0.140625 C 6.015625 -0.648438 4.863281 -1.332031 3.96875 -2.1875 C 3.082031 -3.039062 2.425781 -3.988281 2 -5.03125 C 1.582031 -6.082031 1.375 -7.144531 1.375 -8.21875 L 6.375 -8.21875 C 6.375 -7.375 6.613281 -6.601562 7.09375 -5.90625 C 7.570312 -5.207031 8.265625 -4.648438 9.171875 -4.234375 C 10.085938 -3.816406 11.191406 -3.609375 12.484375 -3.609375 C 16.546875 -3.609375 18.578125 -4.96875 18.578125 -7.6875 C 18.578125 -8.53125 18.316406 -9.21875 17.796875 -9.75 C 17.273438 -10.28125 16.539062 -10.707031 15.59375 -11.03125 C 14.65625 -11.363281 13.550781 -11.65625 12.28125 -11.90625 C 11.363281 -12.09375 10.425781 -12.316406 9.46875 -12.578125 C 8.507812 -12.847656 7.585938 -13.179688 6.703125 -13.578125 C 5.828125 -13.984375 5.039062 -14.484375 4.34375 -15.078125 C 3.644531 -15.671875 3.09375 -16.382812 2.6875 -17.21875 C 2.28125 -18.050781 2.078125 -19.035156 2.078125 -20.171875 C 2.078125 -21.660156 2.4375 -22.992188 3.15625 -24.171875 C 3.875 -25.359375 4.988281 -26.296875 6.5 -26.984375 C 8.019531 -27.679688 9.960938 -28.03125 12.328125 -28.03125 C 14.609375 -28.03125 16.507812 -27.6875 18.03125 -27 C 19.550781 -26.3125 20.695312 -25.347656 21.46875 -24.109375 C 22.238281 -22.878906 22.625 -21.445312 22.625 -19.8125 L 17.625 -19.8125 C 17.625 -20.519531 17.429688 -21.160156 17.046875 -21.734375 C 16.671875 -22.316406 16.09375 -22.78125 15.3125 -23.125 C 14.53125 -23.46875 13.515625 -23.640625 12.265625 -23.640625 C 11.234375 -23.640625 10.378906 -23.539062 9.703125 -23.34375 C 9.035156 -23.144531 8.507812 -22.878906 8.125 -22.546875 C 7.738281 -22.210938 7.46875 -21.835938 7.3125 -21.421875 C 7.164062 -21.003906 7.09375 -20.582031 7.09375 -20.15625 C 7.09375 -19.007812 7.660156 -18.132812 8.796875 -17.53125 C 9.941406 -16.925781 11.660156 -16.4375 13.953125 -16.0625 C 15.210938 -15.832031 16.421875 -15.519531 17.578125 -15.125 C 18.742188 -14.726562 19.78125 -14.210938 20.6875 -13.578125 C 21.601562 -12.941406 22.328125 -12.140625 22.859375 -11.171875 C 23.390625 -10.203125 23.65625 -9.035156 23.65625 -7.671875 C 23.65625 -5.898438 23.195312 -4.394531 22.28125 -3.15625 C 21.363281 -1.925781 20.066406 -0.988281 18.390625 -0.34375 C 16.722656 0.300781 14.757812 0.625 12.5 0.625 Z M 12.5 0.625 "/></g></g></g><g fill="#ffffff" fill-opacity="1"><g transform="translate(178.206758, 197.5147)"><g><path d="M 15.578125 0 L 11.375 0 C 10.757812 0 10.125 -0.0546875 9.46875 -0.171875 C 8.820312 -0.285156 8.203125 -0.492188 7.609375 -0.796875 C 7.015625 -1.109375 6.484375 -1.554688 6.015625 -2.140625 C 5.554688 -2.722656 5.191406 -3.476562 4.921875 -4.40625 C 4.648438 -5.34375 4.515625 -6.5 4.515625 -7.875 L 4.515625 -16.515625 L 0.21875 -16.515625 L 0.21875 -20.703125 L 4.515625 -20.703125 L 4.515625 -26.765625 L 9.375 -26.796875 L 9.375 -20.703125 L 15.578125 -20.703125 L 15.578125 -16.515625 L 9.375 -16.515625 L 9.375 -7.65625 C 9.375 -6.6875 9.515625 -5.9375 9.796875 -5.40625 C 10.085938 -4.882812 10.460938 -4.523438 10.921875 -4.328125 C 11.390625 -4.140625 11.875 -4.046875 12.375 -4.046875 L 15.578125 -4.046875 Z M 15.578125 0 "/></g></g></g><g fill="#ffffff" fill-opacity="1"><g transform="translate(194.874527, 197.5147)"><g><path d="M 7.734375 0 L 2.859375 0 L 2.859375 -20.703125 L 7.53125 -20.703125 L 7.53125 -16.953125 C 8.007812 -18.097656 8.71875 -19.007812 9.65625 -19.6875 C 10.601562 -20.363281 11.75 -20.703125 13.09375 -20.703125 L 15.296875 -20.703125 L 15.296875 -16.515625 L 13.34375 -16.515625 C 12.226562 -16.515625 11.25 -16.242188 10.40625 -15.703125 C 9.5625 -15.171875 8.90625 -14.394531 8.4375 -13.375 C 7.96875 -12.351562 7.734375 -11.101562 7.734375 -9.625 Z M 7.734375 0 "/></g></g></g><g fill="#ffffff" fill-opacity="1"><g transform="translate(210.797481, 197.5147)"><g><path d="M 22.546875 -10.71875 C 22.546875 -10.457031 22.539062 -10.210938 22.53125 -9.984375 C 22.519531 -9.753906 22.492188 -9.445312 22.453125 -9.0625 L 6.28125 -9.0625 C 6.457031 -7.9375 6.816406 -6.976562 7.359375 -6.1875 C 7.898438 -5.394531 8.570312 -4.785156 9.375 -4.359375 C 10.1875 -3.929688 11.066406 -3.71875 12.015625 -3.71875 C 13.253906 -3.71875 14.253906 -3.960938 15.015625 -4.453125 C 15.785156 -4.941406 16.34375 -5.625 16.6875 -6.5 L 22 -6.5 C 21.75 -5.570312 21.332031 -4.675781 20.75 -3.8125 C 20.164062 -2.957031 19.445312 -2.195312 18.59375 -1.53125 C 17.75 -0.875 16.78125 -0.351562 15.6875 0.03125 C 14.59375 0.425781 13.40625 0.625 12.125 0.625 C 10.5625 0.625 9.125 0.335938 7.8125 -0.234375 C 6.507812 -0.804688 5.378906 -1.59375 4.421875 -2.59375 C 3.460938 -3.601562 2.71875 -4.769531 2.1875 -6.09375 C 1.65625 -7.425781 1.390625 -8.84375 1.390625 -10.34375 C 1.390625 -11.863281 1.65625 -13.285156 2.1875 -14.609375 C 2.71875 -15.929688 3.460938 -17.09375 4.421875 -18.09375 C 5.378906 -19.101562 6.507812 -19.894531 7.8125 -20.46875 C 9.125 -21.039062 10.5625 -21.328125 12.125 -21.328125 C 13.675781 -21.328125 15.09375 -21.039062 16.375 -20.46875 C 17.65625 -19.90625 18.753906 -19.128906 19.671875 -18.140625 C 20.597656 -17.160156 21.304688 -16.03125 21.796875 -14.75 C 22.296875 -13.476562 22.546875 -12.132812 22.546875 -10.71875 Z M 6.484375 -12.828125 L 17.578125 -12.828125 C 17.503906 -13.609375 17.210938 -14.316406 16.703125 -14.953125 C 16.203125 -15.585938 15.546875 -16.097656 14.734375 -16.484375 C 13.929688 -16.878906 13.050781 -17.078125 12.09375 -17.078125 C 11.28125 -17.078125 10.5 -16.925781 9.75 -16.625 C 9 -16.320312 8.335938 -15.859375 7.765625 -15.234375 C 7.191406 -14.609375 6.765625 -13.804688 6.484375 -12.828125 Z M 6.484375 -12.828125 "/></g></g></g><g fill="#ffffff" fill-opacity="1"><g transform="translate(234.450415, 197.5147)"><g><path d="M 11.140625 0.625 C 9.742188 0.625 8.445312 0.34375 7.25 -0.21875 C 6.0625 -0.78125 5.03125 -1.566406 4.15625 -2.578125 C 3.28125 -3.585938 2.597656 -4.753906 2.109375 -6.078125 C 1.628906 -7.410156 1.390625 -8.832031 1.390625 -10.34375 C 1.390625 -11.863281 1.632812 -13.285156 2.125 -14.609375 C 2.613281 -15.929688 3.296875 -17.09375 4.171875 -18.09375 C 5.054688 -19.101562 6.085938 -19.894531 7.265625 -20.46875 C 8.453125 -21.039062 9.734375 -21.328125 11.109375 -21.328125 C 12.804688 -21.328125 14.3125 -20.957031 15.625 -20.21875 C 16.9375 -19.488281 17.921875 -18.476562 18.578125 -17.1875 L 18.578125 -20.703125 L 23.21875 -20.703125 L 23.21875 0 L 18.578125 0 L 18.578125 -3.484375 C 17.910156 -2.191406 16.921875 -1.179688 15.609375 -0.453125 C 14.304688 0.265625 12.816406 0.625 11.140625 0.625 Z M 12.296875 -3.890625 C 13.140625 -3.890625 13.929688 -4.050781 14.671875 -4.375 C 15.410156 -4.707031 16.054688 -5.164062 16.609375 -5.75 C 17.171875 -6.332031 17.601562 -7.015625 17.90625 -7.796875 C 18.21875 -8.585938 18.375 -9.4375 18.375 -10.34375 C 18.375 -11.25 18.21875 -12.09375 17.90625 -12.875 C 17.59375 -13.65625 17.160156 -14.34375 16.609375 -14.9375 C 16.054688 -15.53125 15.410156 -15.988281 14.671875 -16.3125 C 13.929688 -16.644531 13.140625 -16.8125 12.296875 -16.8125 C 11.179688 -16.8125 10.164062 -16.539062 9.25 -16 C 8.332031 -15.46875 7.597656 -14.71875 7.046875 -13.75 C 6.492188 -12.78125 6.21875 -11.644531 6.21875 -10.34375 C 6.21875 -9 6.492188 -7.84375 7.046875 -6.875 C 7.609375 -5.914062 8.351562 -5.175781 9.28125 -4.65625 C 10.207031 -4.144531 11.210938 -3.890625 12.296875 -3.890625 Z M 12.296875 -3.890625 "/></g></g></g><g fill="#ffffff" fill-opacity="1"><g transform="translate(260.518967, 197.5147)"><g><path d="M 28.234375 -21.328125 C 30.835938 -21.328125 32.78125 -20.441406 34.0625 -18.671875 C 35.351562 -16.910156 36 -14.40625 36 -11.15625 L 36 0 L 31.1875 0 L 31.1875 -11.046875 C 31.1875 -13.085938 30.789062 -14.5625 30 -15.46875 C 29.21875 -16.375 28.15625 -16.828125 26.8125 -16.828125 C 25.957031 -16.828125 25.144531 -16.566406 24.375 -16.046875 C 23.613281 -15.523438 23 -14.789062 22.53125 -13.84375 C 22.0625 -12.90625 21.828125 -11.816406 21.828125 -10.578125 L 21.828125 0 L 17.015625 0 L 17.015625 -11.046875 C 17.015625 -13.085938 16.617188 -14.5625 15.828125 -15.46875 C 15.046875 -16.375 13.992188 -16.828125 12.671875 -16.828125 C 11.796875 -16.828125 10.976562 -16.566406 10.21875 -16.046875 C 9.457031 -15.523438 8.84375 -14.789062 8.375 -13.84375 C 7.90625 -12.90625 7.671875 -11.816406 7.671875 -10.578125 L 7.671875 0 L 2.859375 0 L 2.859375 -20.703125 L 7.40625 -20.703125 L 7.46875 -17.46875 C 7.832031 -18.207031 8.335938 -18.863281 8.984375 -19.4375 C 9.628906 -20.019531 10.382812 -20.476562 11.25 -20.8125 C 12.113281 -21.15625 13.054688 -21.328125 14.078125 -21.328125 C 15.804688 -21.328125 17.242188 -20.925781 18.390625 -20.125 C 19.535156 -19.320312 20.398438 -18.164062 20.984375 -16.65625 C 21.867188 -18.25 22.925781 -19.425781 24.15625 -20.1875 C 25.394531 -20.945312 26.753906 -21.328125 28.234375 -21.328125 Z M 28.234375 -21.328125 "/></g></g></g><g fill="#ffffff" fill-opacity="1"><g transform="translate(299.209127, 197.5147)"><g><path d="M 14.46875 0.609375 C 12.820312 0.609375 11.289062 0.347656 9.875 -0.171875 C 8.457031 -0.703125 7.210938 -1.453125 6.140625 -2.421875 C 5.078125 -3.398438 4.25 -4.578125 3.65625 -5.953125 C 3.070312 -7.335938 2.78125 -8.882812 2.78125 -10.59375 L 2.78125 -27.375 L 7.765625 -27.375 L 7.765625 -10.953125 C 7.765625 -9.660156 8.023438 -8.488281 8.546875 -7.4375 C 9.066406 -6.382812 9.828125 -5.546875 10.828125 -4.921875 C 11.828125 -4.296875 13.039062 -3.984375 14.46875 -3.984375 C 15.882812 -3.984375 17.085938 -4.289062 18.078125 -4.90625 C 19.066406 -5.53125 19.828125 -6.367188 20.359375 -7.421875 C 20.890625 -8.472656 21.15625 -9.644531 21.15625 -10.9375 L 21.15625 -27.375 L 26.171875 -27.375 L 26.171875 -10.59375 C 26.171875 -8.957031 25.890625 -7.457031 25.328125 -6.09375 C 24.765625 -4.726562 23.960938 -3.546875 22.921875 -2.546875 C 21.890625 -1.546875 20.65625 -0.769531 19.21875 -0.21875 C 17.789062 0.332031 16.207031 0.609375 14.46875 0.609375 Z M 14.46875 0.609375 "/></g></g></g><g fill="#ffffff" fill-opacity="1"><g transform="translate(328.136162, 197.5147)"><g><path d="M 7.734375 7.0625 L 2.859375 7.0625 L 2.859375 -20.703125 L 7.484375 -20.703125 L 7.484375 -17.21875 C 8.242188 -18.46875 9.242188 -19.457031 10.484375 -20.1875 C 11.734375 -20.925781 13.101562 -21.296875 14.59375 -21.296875 C 16.070312 -21.296875 17.425781 -21.007812 18.65625 -20.4375 C 19.882812 -19.875 20.945312 -19.09375 21.84375 -18.09375 C 22.738281 -17.09375 23.4375 -15.929688 23.9375 -14.609375 C 24.4375 -13.285156 24.6875 -11.863281 24.6875 -10.34375 C 24.6875 -8.832031 24.4375 -7.410156 23.9375 -6.078125 C 23.4375 -4.753906 22.734375 -3.585938 21.828125 -2.578125 C 20.921875 -1.566406 19.859375 -0.78125 18.640625 -0.21875 C 17.429688 0.34375 16.101562 0.625 14.65625 0.625 C 13.644531 0.625 12.691406 0.457031 11.796875 0.125 C 10.898438 -0.195312 10.09375 -0.65625 9.375 -1.25 C 8.664062 -1.851562 8.082031 -2.550781 7.625 -3.34375 L 7.734375 -0.953125 Z M 13.765625 -3.859375 C 14.867188 -3.859375 15.878906 -4.117188 16.796875 -4.640625 C 17.722656 -5.171875 18.460938 -5.921875 19.015625 -6.890625 C 19.578125 -7.867188 19.859375 -9.019531 19.859375 -10.34375 C 19.859375 -11.644531 19.582031 -12.78125 19.03125 -13.75 C 18.476562 -14.71875 17.738281 -15.46875 16.8125 -16 C 15.894531 -16.539062 14.875 -16.8125 13.75 -16.8125 C 12.90625 -16.8125 12.113281 -16.644531 11.375 -16.3125 C 10.644531 -15.988281 10.003906 -15.53125 9.453125 -14.9375 C 8.898438 -14.34375 8.460938 -13.65625 8.140625 -12.875 C 7.828125 -12.101562 7.671875 -11.257812 7.671875 -10.34375 C 7.671875 -9.40625 7.832031 -8.539062 8.15625 -7.75 C 8.476562 -6.957031 8.921875 -6.269531 9.484375 -5.6875 C 10.046875 -5.101562 10.695312 -4.648438 11.4375 -4.328125 C 12.175781 -4.015625 12.953125 -3.859375 13.765625 -3.859375 Z M 13.765625 -3.859375 "/></g></g></g></svg>